<mxfile host="app.diagrams.net" agent="Mozilla/5.0 (Windows NT 10.0; Win64; x64) AppleWebKit/537.36 (KHTML, like Gecko) Chrome/135.0.0.0 Safari/537.36" version="26.2.13">
  <diagram name="Atualização" id="gSztaAHtqoWww6EWdy8Z">
    <mxGraphModel dx="896" dy="919" grid="1" gridSize="10" guides="1" tooltips="1" connect="1" arrows="1" fold="1" page="1" pageScale="1" pageWidth="827" pageHeight="1169" math="0" shadow="0">
      <root>
        <mxCell id="0" />
        <mxCell id="1" parent="0" />
        <mxCell id="uQKs5as00VJIWnTQG8AP-3" value="MVC" style="shape=folder;fontStyle=1;tabWidth=70;tabHeight=30;tabPosition=left;html=1;boundedLbl=1;labelInHeader=1;container=0;collapsible=0;whiteSpace=wrap;" vertex="1" parent="1">
          <mxGeometry x="1300" y="140" width="950" height="660" as="geometry" />
        </mxCell>
        <mxCell id="uQKs5as00VJIWnTQG8AP-17" value="" style="html=1;strokeColor=none;resizeWidth=1;resizeHeight=1;fillColor=none;part=1;connectable=0;allowArrows=0;deletable=0;whiteSpace=wrap;" vertex="1" parent="1">
          <mxGeometry x="2237.5" y="655" width="282.5" height="203" as="geometry">
            <mxPoint y="30" as="offset" />
          </mxGeometry>
        </mxCell>
        <mxCell id="uQKs5as00VJIWnTQG8AP-38" value="" style="rounded=0;orthogonalLoop=1;jettySize=auto;html=1;endArrow=halfCircle;endFill=0;endSize=6;strokeWidth=1;sketch=0;exitX=-0.001;exitY=0.35;exitDx=0;exitDy=0;exitPerimeter=0;" edge="1" parent="1" target="uQKs5as00VJIWnTQG8AP-40" source="uQKs5as00VJIWnTQG8AP-19">
          <mxGeometry relative="1" as="geometry">
            <mxPoint x="1690" y="376" as="sourcePoint" />
          </mxGeometry>
        </mxCell>
        <mxCell id="uQKs5as00VJIWnTQG8AP-39" value="" style="rounded=0;orthogonalLoop=1;jettySize=auto;html=1;endArrow=oval;endFill=0;sketch=0;sourcePerimeterSpacing=0;targetPerimeterSpacing=0;endSize=10;exitX=1;exitY=0.427;exitDx=0;exitDy=0;exitPerimeter=0;" edge="1" parent="1" source="uQKs5as00VJIWnTQG8AP-8" target="uQKs5as00VJIWnTQG8AP-40">
          <mxGeometry relative="1" as="geometry">
            <mxPoint x="1650" y="335" as="sourcePoint" />
          </mxGeometry>
        </mxCell>
        <mxCell id="uQKs5as00VJIWnTQG8AP-40" value="" style="ellipse;whiteSpace=wrap;html=1;align=center;aspect=fixed;fillColor=none;strokeColor=none;resizable=0;perimeter=centerPerimeter;rotatable=0;allowArrows=0;points=[];outlineConnect=1;" vertex="1" parent="1">
          <mxGeometry x="1775" y="270" width="10" height="10" as="geometry" />
        </mxCell>
        <mxCell id="uQKs5as00VJIWnTQG8AP-41" value="" style="rounded=0;orthogonalLoop=1;jettySize=auto;html=1;endArrow=halfCircle;endFill=0;endSize=6;strokeWidth=1;sketch=0;exitX=1;exitY=0.754;exitDx=0;exitDy=0;exitPerimeter=0;" edge="1" parent="1" source="uQKs5as00VJIWnTQG8AP-8" target="uQKs5as00VJIWnTQG8AP-43">
          <mxGeometry relative="1" as="geometry">
            <mxPoint x="1550" y="424" as="sourcePoint" />
          </mxGeometry>
        </mxCell>
        <mxCell id="uQKs5as00VJIWnTQG8AP-42" value="" style="rounded=0;orthogonalLoop=1;jettySize=auto;html=1;endArrow=oval;endFill=0;sketch=0;sourcePerimeterSpacing=0;targetPerimeterSpacing=0;endSize=10;exitX=0;exitY=0.619;exitDx=0;exitDy=0;exitPerimeter=0;" edge="1" parent="1" target="uQKs5as00VJIWnTQG8AP-43" source="uQKs5as00VJIWnTQG8AP-19">
          <mxGeometry relative="1" as="geometry">
            <mxPoint x="1690" y="426" as="sourcePoint" />
          </mxGeometry>
        </mxCell>
        <mxCell id="uQKs5as00VJIWnTQG8AP-43" value="" style="ellipse;whiteSpace=wrap;html=1;align=center;aspect=fixed;fillColor=none;strokeColor=none;resizable=0;perimeter=centerPerimeter;rotatable=0;allowArrows=0;points=[];outlineConnect=1;" vertex="1" parent="1">
          <mxGeometry x="1775" y="330" width="10" height="10" as="geometry" />
        </mxCell>
        <mxCell id="uQKs5as00VJIWnTQG8AP-44" value="Data object&lt;div&gt;Request&lt;/div&gt;" style="text;html=1;align=center;verticalAlign=middle;resizable=0;points=[];autosize=1;strokeColor=none;fillColor=none;" vertex="1" parent="1">
          <mxGeometry x="1740" y="220" width="80" height="40" as="geometry" />
        </mxCell>
        <mxCell id="uQKs5as00VJIWnTQG8AP-45" value="Data object&lt;div&gt;Response&lt;/div&gt;" style="text;html=1;align=center;verticalAlign=middle;resizable=0;points=[];autosize=1;strokeColor=none;fillColor=none;" vertex="1" parent="1">
          <mxGeometry x="1740" y="352" width="80" height="40" as="geometry" />
        </mxCell>
        <mxCell id="uQKs5as00VJIWnTQG8AP-46" value="" style="rounded=0;orthogonalLoop=1;jettySize=auto;html=1;endArrow=halfCircle;endFill=0;endSize=6;strokeWidth=1;sketch=0;exitX=0.227;exitY=0;exitDx=0;exitDy=0;exitPerimeter=0;" edge="1" parent="1" source="uQKs5as00VJIWnTQG8AP-5" target="uQKs5as00VJIWnTQG8AP-48">
          <mxGeometry relative="1" as="geometry">
            <mxPoint x="1620" y="405" as="sourcePoint" />
          </mxGeometry>
        </mxCell>
        <mxCell id="uQKs5as00VJIWnTQG8AP-47" value="" style="rounded=0;orthogonalLoop=1;jettySize=auto;html=1;endArrow=oval;endFill=0;sketch=0;sourcePerimeterSpacing=0;targetPerimeterSpacing=0;endSize=10;exitX=0.315;exitY=1.003;exitDx=0;exitDy=0;exitPerimeter=0;" edge="1" parent="1" source="uQKs5as00VJIWnTQG8AP-8" target="uQKs5as00VJIWnTQG8AP-48">
          <mxGeometry relative="1" as="geometry">
            <mxPoint x="1580" y="405" as="sourcePoint" />
          </mxGeometry>
        </mxCell>
        <mxCell id="uQKs5as00VJIWnTQG8AP-48" value="" style="ellipse;whiteSpace=wrap;html=1;align=center;aspect=fixed;fillColor=none;strokeColor=none;resizable=0;perimeter=centerPerimeter;rotatable=0;allowArrows=0;points=[];outlineConnect=1;" vertex="1" parent="1">
          <mxGeometry x="1440" y="430" width="10" height="10" as="geometry" />
        </mxCell>
        <mxCell id="uQKs5as00VJIWnTQG8AP-49" value="" style="rounded=0;orthogonalLoop=1;jettySize=auto;html=1;endArrow=halfCircle;endFill=0;endSize=6;strokeWidth=1;sketch=0;exitX=0.564;exitY=1.002;exitDx=0;exitDy=0;exitPerimeter=0;" edge="1" parent="1" source="uQKs5as00VJIWnTQG8AP-8" target="uQKs5as00VJIWnTQG8AP-51">
          <mxGeometry relative="1" as="geometry">
            <mxPoint x="1546" y="381" as="sourcePoint" />
          </mxGeometry>
        </mxCell>
        <mxCell id="uQKs5as00VJIWnTQG8AP-50" value="" style="rounded=0;orthogonalLoop=1;jettySize=auto;html=1;endArrow=oval;endFill=0;sketch=0;sourcePerimeterSpacing=0;targetPerimeterSpacing=0;endSize=10;exitX=0.681;exitY=0;exitDx=0;exitDy=0;exitPerimeter=0;" edge="1" parent="1" source="uQKs5as00VJIWnTQG8AP-5" target="uQKs5as00VJIWnTQG8AP-51">
          <mxGeometry relative="1" as="geometry">
            <mxPoint x="1440" y="495" as="sourcePoint" />
          </mxGeometry>
        </mxCell>
        <mxCell id="uQKs5as00VJIWnTQG8AP-51" value="" style="ellipse;whiteSpace=wrap;html=1;align=center;aspect=fixed;fillColor=none;strokeColor=none;resizable=0;perimeter=centerPerimeter;rotatable=0;allowArrows=0;points=[];outlineConnect=1;" vertex="1" parent="1">
          <mxGeometry x="1540" y="430" width="10" height="10" as="geometry" />
        </mxCell>
        <mxCell id="uQKs5as00VJIWnTQG8AP-52" value="Methods&lt;div&gt;Response&lt;/div&gt;" style="text;html=1;align=center;verticalAlign=middle;resizable=0;points=[];autosize=1;strokeColor=none;fillColor=none;" vertex="1" parent="1">
          <mxGeometry x="1350" y="415" width="80" height="40" as="geometry" />
        </mxCell>
        <mxCell id="uQKs5as00VJIWnTQG8AP-53" value="Methods&lt;div&gt;Request&lt;/div&gt;" style="text;html=1;align=center;verticalAlign=middle;resizable=0;points=[];autosize=1;strokeColor=none;fillColor=none;" vertex="1" parent="1">
          <mxGeometry x="1560" y="415" width="70" height="40" as="geometry" />
        </mxCell>
        <mxCell id="uQKs5as00VJIWnTQG8AP-133" value="" style="group" vertex="1" connectable="0" parent="1">
          <mxGeometry x="1395" y="490" width="220" height="290" as="geometry" />
        </mxCell>
        <mxCell id="uQKs5as00VJIWnTQG8AP-4" value="" style="group" vertex="1" connectable="0" parent="uQKs5as00VJIWnTQG8AP-133">
          <mxGeometry width="220" height="290" as="geometry" />
        </mxCell>
        <mxCell id="uQKs5as00VJIWnTQG8AP-5" value="View" style="shape=umlFrame;whiteSpace=wrap;html=1;pointerEvents=0;shadow=0;" vertex="1" parent="uQKs5as00VJIWnTQG8AP-4">
          <mxGeometry width="220" height="290" as="geometry" />
        </mxCell>
        <mxCell id="uQKs5as00VJIWnTQG8AP-119" value="LoginView" style="swimlane;fontStyle=1;align=center;verticalAlign=top;childLayout=stackLayout;horizontal=1;startSize=26;horizontalStack=0;resizeParent=1;resizeParentMax=0;resizeLast=0;collapsible=1;marginBottom=0;whiteSpace=wrap;html=1;" vertex="1" parent="uQKs5as00VJIWnTQG8AP-133">
          <mxGeometry x="30" y="40" width="160" height="234" as="geometry" />
        </mxCell>
        <mxCell id="uQKs5as00VJIWnTQG8AP-123" value="+ getName(String)" style="text;strokeColor=none;fillColor=none;align=left;verticalAlign=top;spacingLeft=4;spacingRight=4;overflow=hidden;rotatable=0;points=[[0,0.5],[1,0.5]];portConstraint=eastwest;whiteSpace=wrap;html=1;" vertex="1" parent="uQKs5as00VJIWnTQG8AP-119">
          <mxGeometry y="26" width="160" height="26" as="geometry" />
        </mxCell>
        <mxCell id="uQKs5as00VJIWnTQG8AP-124" value="+ getPassword(String)" style="text;strokeColor=none;fillColor=none;align=left;verticalAlign=top;spacingLeft=4;spacingRight=4;overflow=hidden;rotatable=0;points=[[0,0.5],[1,0.5]];portConstraint=eastwest;whiteSpace=wrap;html=1;" vertex="1" parent="uQKs5as00VJIWnTQG8AP-119">
          <mxGeometry y="52" width="160" height="26" as="geometry" />
        </mxCell>
        <mxCell id="uQKs5as00VJIWnTQG8AP-127" value="+ verifyCaptcha(String)" style="text;strokeColor=none;fillColor=none;align=left;verticalAlign=top;spacingLeft=4;spacingRight=4;overflow=hidden;rotatable=0;points=[[0,0.5],[1,0.5]];portConstraint=eastwest;whiteSpace=wrap;html=1;" vertex="1" parent="uQKs5as00VJIWnTQG8AP-119">
          <mxGeometry y="78" width="160" height="26" as="geometry" />
        </mxCell>
        <mxCell id="uQKs5as00VJIWnTQG8AP-128" value="+ showSucces()" style="text;strokeColor=none;fillColor=none;align=left;verticalAlign=top;spacingLeft=4;spacingRight=4;overflow=hidden;rotatable=0;points=[[0,0.5],[1,0.5]];portConstraint=eastwest;whiteSpace=wrap;html=1;" vertex="1" parent="uQKs5as00VJIWnTQG8AP-119">
          <mxGeometry y="104" width="160" height="26" as="geometry" />
        </mxCell>
        <mxCell id="uQKs5as00VJIWnTQG8AP-129" value="+ showFailure()" style="text;strokeColor=none;fillColor=none;align=left;verticalAlign=top;spacingLeft=4;spacingRight=4;overflow=hidden;rotatable=0;points=[[0,0.5],[1,0.5]];portConstraint=eastwest;whiteSpace=wrap;html=1;" vertex="1" parent="uQKs5as00VJIWnTQG8AP-119">
          <mxGeometry y="130" width="160" height="26" as="geometry" />
        </mxCell>
        <mxCell id="uQKs5as00VJIWnTQG8AP-130" value="+ showCaptchaError()" style="text;strokeColor=none;fillColor=none;align=left;verticalAlign=top;spacingLeft=4;spacingRight=4;overflow=hidden;rotatable=0;points=[[0,0.5],[1,0.5]];portConstraint=eastwest;whiteSpace=wrap;html=1;" vertex="1" parent="uQKs5as00VJIWnTQG8AP-119">
          <mxGeometry y="156" width="160" height="26" as="geometry" />
        </mxCell>
        <mxCell id="uQKs5as00VJIWnTQG8AP-131" value="+ registerMessage()" style="text;strokeColor=none;fillColor=none;align=left;verticalAlign=top;spacingLeft=4;spacingRight=4;overflow=hidden;rotatable=0;points=[[0,0.5],[1,0.5]];portConstraint=eastwest;whiteSpace=wrap;html=1;" vertex="1" parent="uQKs5as00VJIWnTQG8AP-119">
          <mxGeometry y="182" width="160" height="26" as="geometry" />
        </mxCell>
        <mxCell id="uQKs5as00VJIWnTQG8AP-132" value="+ loginMessage()" style="text;strokeColor=none;fillColor=none;align=left;verticalAlign=top;spacingLeft=4;spacingRight=4;overflow=hidden;rotatable=0;points=[[0,0.5],[1,0.5]];portConstraint=eastwest;whiteSpace=wrap;html=1;" vertex="1" parent="uQKs5as00VJIWnTQG8AP-119">
          <mxGeometry y="208" width="160" height="26" as="geometry" />
        </mxCell>
        <mxCell id="uQKs5as00VJIWnTQG8AP-136" value="" style="group" vertex="1" connectable="0" parent="1">
          <mxGeometry x="1840" y="197" width="390" height="223" as="geometry" />
        </mxCell>
        <mxCell id="uQKs5as00VJIWnTQG8AP-112" value="UserModel" style="swimlane;fontStyle=1;align=center;verticalAlign=top;childLayout=stackLayout;horizontal=1;startSize=26;horizontalStack=0;resizeParent=1;resizeParentMax=0;resizeLast=0;collapsible=1;marginBottom=0;whiteSpace=wrap;html=1;" vertex="1" parent="uQKs5as00VJIWnTQG8AP-136">
          <mxGeometry x="210" y="44.373999999999995" width="160" height="78.624" as="geometry">
            <mxRectangle x="2230" y="250.004" width="70" height="30" as="alternateBounds" />
          </mxGeometry>
        </mxCell>
        <mxCell id="uQKs5as00VJIWnTQG8AP-113" value="- name: String" style="text;strokeColor=none;fillColor=none;align=left;verticalAlign=top;spacingLeft=4;spacingRight=4;overflow=hidden;rotatable=0;points=[[0,0.5],[1,0.5]];portConstraint=eastwest;whiteSpace=wrap;html=1;" vertex="1" parent="uQKs5as00VJIWnTQG8AP-112">
          <mxGeometry y="26" width="160" height="26.312" as="geometry" />
        </mxCell>
        <mxCell id="uQKs5as00VJIWnTQG8AP-114" value="- password: String" style="text;strokeColor=none;fillColor=none;align=left;verticalAlign=top;spacingLeft=4;spacingRight=4;overflow=hidden;rotatable=0;points=[[0,0.5],[1,0.5]];portConstraint=eastwest;whiteSpace=wrap;html=1;" vertex="1" parent="uQKs5as00VJIWnTQG8AP-112">
          <mxGeometry y="52.312" width="160" height="26.312" as="geometry" />
        </mxCell>
        <mxCell id="uQKs5as00VJIWnTQG8AP-19" value="Models" style="shape=umlFrame;whiteSpace=wrap;html=1;pointerEvents=0;width=60;height=30;" vertex="1" parent="uQKs5as00VJIWnTQG8AP-136">
          <mxGeometry width="390" height="223" as="geometry" />
        </mxCell>
        <mxCell id="uQKs5as00VJIWnTQG8AP-20" value="LoginModel" style="swimlane;fontStyle=1;align=center;verticalAlign=top;childLayout=stackLayout;horizontal=1;startSize=26;horizontalStack=0;resizeParent=1;resizeParentMax=0;resizeLast=0;collapsible=1;marginBottom=0;whiteSpace=wrap;html=1;" vertex="1" parent="uQKs5as00VJIWnTQG8AP-136">
          <mxGeometry x="20" y="44.373999999999995" width="160" height="165.56" as="geometry">
            <mxRectangle x="760" y="300" width="70" height="30" as="alternateBounds" />
          </mxGeometry>
        </mxCell>
        <mxCell id="uQKs5as00VJIWnTQG8AP-21" value="- instance: LoginModel" style="text;strokeColor=none;fillColor=none;align=left;verticalAlign=top;spacingLeft=4;spacingRight=4;overflow=hidden;rotatable=0;points=[[0,0.5],[1,0.5]];portConstraint=eastwest;whiteSpace=wrap;html=1;" vertex="1" parent="uQKs5as00VJIWnTQG8AP-20">
          <mxGeometry y="26" width="160" height="26.312" as="geometry" />
        </mxCell>
        <mxCell id="uQKs5as00VJIWnTQG8AP-118" value="" style="line;strokeWidth=1;fillColor=none;align=left;verticalAlign=middle;spacingTop=-1;spacingLeft=3;spacingRight=3;rotatable=0;labelPosition=right;points=[];portConstraint=eastwest;strokeColor=inherit;" vertex="1" parent="uQKs5as00VJIWnTQG8AP-20">
          <mxGeometry y="52.312" width="160" height="8" as="geometry" />
        </mxCell>
        <mxCell id="uQKs5as00VJIWnTQG8AP-22" value="+ getInstace()" style="text;strokeColor=none;fillColor=none;align=left;verticalAlign=top;spacingLeft=4;spacingRight=4;overflow=hidden;rotatable=0;points=[[0,0.5],[1,0.5]];portConstraint=eastwest;whiteSpace=wrap;html=1;" vertex="1" parent="uQKs5as00VJIWnTQG8AP-20">
          <mxGeometry y="60.312" width="160" height="26.312" as="geometry" />
        </mxCell>
        <mxCell id="uQKs5as00VJIWnTQG8AP-23" value="+ addUser()" style="text;strokeColor=none;fillColor=none;align=left;verticalAlign=top;spacingLeft=4;spacingRight=4;overflow=hidden;rotatable=0;points=[[0,0.5],[1,0.5]];portConstraint=eastwest;whiteSpace=wrap;html=1;" vertex="1" parent="uQKs5as00VJIWnTQG8AP-20">
          <mxGeometry y="86.624" width="160" height="26.312" as="geometry" />
        </mxCell>
        <mxCell id="uQKs5as00VJIWnTQG8AP-24" value="+ verifyLogin(boolean)" style="text;strokeColor=none;fillColor=none;align=left;verticalAlign=top;spacingLeft=4;spacingRight=4;overflow=hidden;rotatable=0;points=[[0,0.5],[1,0.5]];portConstraint=eastwest;whiteSpace=wrap;html=1;" vertex="1" parent="uQKs5as00VJIWnTQG8AP-20">
          <mxGeometry y="112.93599999999999" width="160" height="26.312" as="geometry" />
        </mxCell>
        <mxCell id="uQKs5as00VJIWnTQG8AP-25" value="+ captcha(String)" style="text;strokeColor=none;fillColor=none;align=left;verticalAlign=top;spacingLeft=4;spacingRight=4;overflow=hidden;rotatable=0;points=[[0,0.5],[1,0.5]];portConstraint=eastwest;whiteSpace=wrap;html=1;" vertex="1" parent="uQKs5as00VJIWnTQG8AP-20">
          <mxGeometry y="139.248" width="160" height="26.312" as="geometry" />
        </mxCell>
        <mxCell id="uQKs5as00VJIWnTQG8AP-137" value="" style="group" vertex="1" connectable="0" parent="1">
          <mxGeometry x="1320" y="197" width="400" height="183" as="geometry" />
        </mxCell>
        <mxCell id="uQKs5as00VJIWnTQG8AP-103" value="Register" style="swimlane;fontStyle=1;align=center;verticalAlign=top;childLayout=stackLayout;horizontal=1;startSize=26;horizontalStack=0;resizeParent=1;resizeParentMax=0;resizeLast=0;collapsible=1;marginBottom=0;whiteSpace=wrap;html=1;" vertex="1" parent="uQKs5as00VJIWnTQG8AP-137">
          <mxGeometry x="220" y="43" width="160" height="112" as="geometry" />
        </mxCell>
        <mxCell id="uQKs5as00VJIWnTQG8AP-104" value="- login: LoginModel" style="text;strokeColor=none;fillColor=none;align=left;verticalAlign=top;spacingLeft=4;spacingRight=4;overflow=hidden;rotatable=0;points=[[0,0.5],[1,0.5]];portConstraint=eastwest;whiteSpace=wrap;html=1;" vertex="1" parent="uQKs5as00VJIWnTQG8AP-103">
          <mxGeometry y="26" width="160" height="26" as="geometry" />
        </mxCell>
        <mxCell id="uQKs5as00VJIWnTQG8AP-111" value="- view: LoginView" style="text;strokeColor=none;fillColor=none;align=left;verticalAlign=top;spacingLeft=4;spacingRight=4;overflow=hidden;rotatable=0;points=[[0,0.5],[1,0.5]];portConstraint=eastwest;whiteSpace=wrap;html=1;" vertex="1" parent="uQKs5as00VJIWnTQG8AP-103">
          <mxGeometry y="52" width="160" height="26" as="geometry" />
        </mxCell>
        <mxCell id="uQKs5as00VJIWnTQG8AP-106" value="" style="line;strokeWidth=1;fillColor=none;align=left;verticalAlign=middle;spacingTop=-1;spacingLeft=3;spacingRight=3;rotatable=0;labelPosition=right;points=[];portConstraint=eastwest;strokeColor=inherit;" vertex="1" parent="uQKs5as00VJIWnTQG8AP-103">
          <mxGeometry y="78" width="160" height="8" as="geometry" />
        </mxCell>
        <mxCell id="uQKs5as00VJIWnTQG8AP-107" value="+ registerUser()" style="text;strokeColor=none;fillColor=none;align=left;verticalAlign=top;spacingLeft=4;spacingRight=4;overflow=hidden;rotatable=0;points=[[0,0.5],[1,0.5]];portConstraint=eastwest;whiteSpace=wrap;html=1;" vertex="1" parent="uQKs5as00VJIWnTQG8AP-103">
          <mxGeometry y="86" width="160" height="26" as="geometry" />
        </mxCell>
        <mxCell id="uQKs5as00VJIWnTQG8AP-8" value="Controllers" style="shape=umlFrame;whiteSpace=wrap;html=1;pointerEvents=0;width=70;height=30;" vertex="1" parent="uQKs5as00VJIWnTQG8AP-137">
          <mxGeometry width="400" height="183" as="geometry" />
        </mxCell>
        <mxCell id="uQKs5as00VJIWnTQG8AP-9" value="LoginController" style="swimlane;fontStyle=1;align=center;verticalAlign=top;childLayout=stackLayout;horizontal=1;startSize=26;horizontalStack=0;resizeParent=1;resizeParentMax=0;resizeLast=0;collapsible=1;marginBottom=0;whiteSpace=wrap;html=1;" vertex="1" parent="uQKs5as00VJIWnTQG8AP-137">
          <mxGeometry x="20" y="43" width="160" height="112" as="geometry" />
        </mxCell>
        <mxCell id="uQKs5as00VJIWnTQG8AP-10" value="- model: LoginModel" style="text;strokeColor=none;fillColor=none;align=left;verticalAlign=top;spacingLeft=4;spacingRight=4;overflow=hidden;rotatable=0;points=[[0,0.5],[1,0.5]];portConstraint=eastwest;whiteSpace=wrap;html=1;" vertex="1" parent="uQKs5as00VJIWnTQG8AP-9">
          <mxGeometry y="26" width="160" height="26" as="geometry" />
        </mxCell>
        <mxCell id="uQKs5as00VJIWnTQG8AP-11" value="- view: LoginView" style="text;strokeColor=none;fillColor=none;align=left;verticalAlign=top;spacingLeft=4;spacingRight=4;overflow=hidden;rotatable=0;points=[[0,0.5],[1,0.5]];portConstraint=eastwest;whiteSpace=wrap;html=1;" vertex="1" parent="uQKs5as00VJIWnTQG8AP-9">
          <mxGeometry y="52" width="160" height="26" as="geometry" />
        </mxCell>
        <mxCell id="uQKs5as00VJIWnTQG8AP-12" value="" style="line;strokeWidth=1;fillColor=none;align=left;verticalAlign=middle;spacingTop=-1;spacingLeft=3;spacingRight=3;rotatable=0;labelPosition=right;points=[];portConstraint=eastwest;strokeColor=inherit;" vertex="1" parent="uQKs5as00VJIWnTQG8AP-9">
          <mxGeometry y="78" width="160" height="8" as="geometry" />
        </mxCell>
        <mxCell id="uQKs5as00VJIWnTQG8AP-13" value="+ effectLogin()" style="text;strokeColor=none;fillColor=none;align=left;verticalAlign=top;spacingLeft=4;spacingRight=4;overflow=hidden;rotatable=0;points=[[0,0.5],[1,0.5]];portConstraint=eastwest;whiteSpace=wrap;html=1;" vertex="1" parent="uQKs5as00VJIWnTQG8AP-9">
          <mxGeometry y="86" width="160" height="26" as="geometry" />
        </mxCell>
      </root>
    </mxGraphModel>
  </diagram>
</mxfile>
